<svg width="94" height="44" viewBox="0 0 94 44" fill="none" xmlns="http://www.w3.org/2000/svg">
<path d="M39.0996 29.0039H37.0312V26.9707H31.7344V29.0039H29.666V25.3066H30.3281C30.7812 24.3574 31.127 23.2871 31.3652 22.0957C31.6074 20.9043 31.7285 19.6309 31.7285 18.2754H38.2383V25.3066H39.0996V29.0039ZM35.9883 25.3066V19.9629H33.8086C33.7344 21.0254 33.5781 22.0078 33.3398 22.9102C33.1055 23.8086 32.8203 24.6074 32.4844 25.3066H35.9883ZM47.2441 23.7129C47.2441 24.7949 46.9277 25.6484 46.2949 26.2734C45.666 26.8945 44.7812 27.2051 43.6406 27.2051C42.5 27.2051 41.6133 26.8945 40.9805 26.2734C40.3516 25.6484 40.0371 24.7949 40.0371 23.7129C40.0371 22.623 40.3535 21.7676 40.9863 21.1465C41.623 20.5254 42.5078 20.2148 43.6406 20.2148C44.7891 20.2148 45.6758 20.5273 46.3008 21.1523C46.9297 21.7773 47.2441 22.6309 47.2441 23.7129ZM44.6484 25.3125C44.7852 25.1445 44.8867 24.9434 44.9531 24.709C45.0234 24.4707 45.0586 24.1426 45.0586 23.7246C45.0586 23.3379 45.0234 23.0137 44.9531 22.752C44.8828 22.4902 44.7852 22.2812 44.6602 22.125C44.5352 21.9648 44.3848 21.8516 44.209 21.7852C44.0332 21.7188 43.8438 21.6855 43.6406 21.6855C43.4375 21.6855 43.2559 21.7129 43.0957 21.7676C42.9395 21.8223 42.7891 21.9316 42.6445 22.0957C42.5156 22.248 42.4121 22.457 42.334 22.7227C42.2598 22.9883 42.2227 23.3223 42.2227 23.7246C42.2227 24.084 42.2559 24.3965 42.3223 24.6621C42.3887 24.9238 42.4863 25.1348 42.6152 25.2949C42.7402 25.4473 42.8887 25.5586 43.0605 25.6289C43.2363 25.6992 43.4355 25.7344 43.6582 25.7344C43.8496 25.7344 44.0312 25.7031 44.2031 25.6406C44.3789 25.5742 44.5273 25.4648 44.6484 25.3125ZM52.1836 27.1758C51.6094 27.1758 51.084 27.1074 50.6074 26.9707C50.1348 26.834 49.7227 26.623 49.3711 26.3379C49.0234 26.0527 48.7539 25.6934 48.5625 25.2598C48.3711 24.8262 48.2754 24.3184 48.2754 23.7363C48.2754 23.123 48.377 22.5938 48.5801 22.1484C48.7871 21.7031 49.0742 21.334 49.4414 21.041C49.7969 20.7637 50.207 20.5605 50.6719 20.4316C51.1367 20.3027 51.6191 20.2383 52.1191 20.2383C52.5684 20.2383 52.9824 20.2871 53.3613 20.3848C53.7402 20.4824 54.0938 20.6094 54.4219 20.7656V22.5645H54.123C54.041 22.4941 53.9414 22.4121 53.8242 22.3184C53.7109 22.2246 53.5703 22.1328 53.4023 22.043C53.2422 21.957 53.0664 21.8867 52.875 21.832C52.6836 21.7734 52.4609 21.7441 52.207 21.7441C51.6445 21.7441 51.2109 21.9238 50.9062 22.2832C50.6055 22.6387 50.4551 23.123 50.4551 23.7363C50.4551 24.3691 50.6094 24.8496 50.918 25.1777C51.2305 25.5059 51.6719 25.6699 52.2422 25.6699C52.5078 25.6699 52.7461 25.6406 52.957 25.582C53.1719 25.5195 53.3496 25.4473 53.4902 25.3652C53.623 25.2871 53.7402 25.2051 53.8418 25.1191C53.9434 25.0332 54.0371 24.9492 54.123 24.8672H54.4219V26.666C54.0898 26.8223 53.7422 26.9453 53.3789 27.0352C53.0195 27.1289 52.6211 27.1758 52.1836 27.1758ZM61.3066 21.8496H59.209V27H57.0996V21.8496H55.002V20.4199H61.3066V21.8496ZM66.3457 25.2832V23.9121C66.0605 23.9355 65.752 23.9688 65.4199 24.0117C65.0879 24.0508 64.8359 24.0977 64.6641 24.1523C64.4531 24.2188 64.291 24.3164 64.1777 24.4453C64.0684 24.5703 64.0137 24.7363 64.0137 24.9434C64.0137 25.0801 64.0254 25.1914 64.0488 25.2773C64.0723 25.3633 64.1309 25.4453 64.2246 25.5234C64.3145 25.6016 64.4219 25.6602 64.5469 25.6992C64.6719 25.7344 64.8672 25.752 65.1328 25.752C65.3438 25.752 65.5566 25.709 65.7715 25.623C65.9902 25.5371 66.1816 25.4238 66.3457 25.2832ZM66.3457 26.3027C66.2324 26.3887 66.0918 26.4922 65.9238 26.6133C65.7559 26.7344 65.5977 26.8301 65.4492 26.9004C65.2422 26.9941 65.0273 27.0625 64.8047 27.1055C64.582 27.1523 64.3379 27.1758 64.0723 27.1758C63.4473 27.1758 62.9238 26.9824 62.502 26.5957C62.0801 26.209 61.8691 25.7148 61.8691 25.1133C61.8691 24.6328 61.9766 24.2402 62.1914 23.9355C62.4062 23.6309 62.7109 23.3906 63.1055 23.2148C63.4961 23.0391 63.9805 22.9141 64.5586 22.8398C65.1367 22.7656 65.7363 22.7109 66.3574 22.6758V22.6406C66.3574 22.2773 66.209 22.0273 65.9121 21.8906C65.6152 21.75 65.1777 21.6797 64.5996 21.6797C64.252 21.6797 63.8809 21.7422 63.4863 21.8672C63.0918 21.9883 62.8086 22.082 62.6367 22.1484H62.4434V20.5605C62.666 20.502 63.0273 20.4336 63.5273 20.3555C64.0312 20.2734 64.5352 20.2324 65.0391 20.2324C66.2383 20.2324 67.1035 20.418 67.6348 20.7891C68.1699 21.1562 68.4375 21.7344 68.4375 22.5234V27H66.3457V26.3027ZM76.9746 25.0137C76.9746 25.3301 76.9102 25.6113 76.7812 25.8574C76.6562 26.1035 76.4883 26.3086 76.2773 26.4727C76.0117 26.6797 75.7305 26.8203 75.4336 26.8945C75.1406 26.9648 74.791 27 74.3848 27H70.377V20.4199H74.2148C74.6953 20.4199 75.0488 20.4355 75.2754 20.4668C75.502 20.498 75.7246 20.5742 75.9434 20.6953C76.1738 20.8203 76.3457 20.9863 76.459 21.1934C76.5762 21.4004 76.6348 21.6465 76.6348 21.9316C76.6348 22.2559 76.541 22.541 76.3535 22.7871C76.1699 23.0293 75.9473 23.2148 75.6855 23.3438V23.4082C76.0488 23.498 76.3535 23.6797 76.5996 23.9531C76.8496 24.2227 76.9746 24.5762 76.9746 25.0137ZM74.5078 22.4004C74.5078 22.1582 74.4336 21.9863 74.2852 21.8848C74.1406 21.7832 73.9062 21.7324 73.582 21.7324H72.4688V23.0449H73.6172C73.9023 23.0449 74.1211 22.9883 74.2734 22.875C74.4297 22.7578 74.5078 22.5996 74.5078 22.4004ZM74.8008 24.9492C74.8008 24.6641 74.7188 24.4648 74.5547 24.3516C74.3945 24.2344 74.1562 24.1758 73.8398 24.1758H72.4688V25.6816H73.875C74.1641 25.6816 74.3906 25.6172 74.5547 25.4883C74.7188 25.3555 74.8008 25.1758 74.8008 24.9492ZM85.4941 27H83.0566L81.293 24.3926H80.6191V27H78.5098V20.4199H80.6191V23.0625C81.0098 23.0586 81.2793 23.0176 81.4277 22.9395C81.5762 22.8574 81.748 22.6445 81.9434 22.3008C82.002 22.1992 82.0723 22.0684 82.1543 21.9082C82.2363 21.748 82.3008 21.625 82.3477 21.5391C82.5625 21.1562 82.8125 20.873 83.0977 20.6895C83.3867 20.502 83.7871 20.4082 84.2988 20.4082C84.4473 20.4082 84.6035 20.4102 84.7676 20.4141C84.9355 20.418 85.0488 20.4199 85.1074 20.4199V22.1777H84.5332C84.2988 22.1777 84.1113 22.2363 83.9707 22.3535C83.834 22.4707 83.7148 22.6445 83.6133 22.875C83.5273 23.0664 83.4492 23.2188 83.3789 23.332C83.3086 23.4414 83.2188 23.5352 83.1094 23.6133L85.4941 27ZM90.5449 25.2832V23.9121C90.2598 23.9355 89.9512 23.9688 89.6191 24.0117C89.2871 24.0508 89.0352 24.0977 88.8633 24.1523C88.6523 24.2188 88.4902 24.3164 88.377 24.4453C88.2676 24.5703 88.2129 24.7363 88.2129 24.9434C88.2129 25.0801 88.2246 25.1914 88.248 25.2773C88.2715 25.3633 88.3301 25.4453 88.4238 25.5234C88.5137 25.6016 88.6211 25.6602 88.7461 25.6992C88.8711 25.7344 89.0664 25.752 89.332 25.752C89.543 25.752 89.7559 25.709 89.9707 25.623C90.1895 25.5371 90.3809 25.4238 90.5449 25.2832ZM90.5449 26.3027C90.4316 26.3887 90.291 26.4922 90.123 26.6133C89.9551 26.7344 89.7969 26.8301 89.6484 26.9004C89.4414 26.9941 89.2266 27.0625 89.0039 27.1055C88.7812 27.1523 88.5371 27.1758 88.2715 27.1758C87.6465 27.1758 87.123 26.9824 86.7012 26.5957C86.2793 26.209 86.0684 25.7148 86.0684 25.1133C86.0684 24.6328 86.1758 24.2402 86.3906 23.9355C86.6055 23.6309 86.9102 23.3906 87.3047 23.2148C87.6953 23.0391 88.1797 22.9141 88.7578 22.8398C89.3359 22.7656 89.9355 22.7109 90.5566 22.6758V22.6406C90.5566 22.2773 90.4082 22.0273 90.1113 21.8906C89.8145 21.75 89.377 21.6797 88.7988 21.6797C88.4512 21.6797 88.0801 21.7422 87.6855 21.8672C87.291 21.9883 87.0078 22.082 86.8359 22.1484H86.6426V20.5605C86.8652 20.502 87.2266 20.4336 87.7266 20.3555C88.2305 20.2734 88.7344 20.2324 89.2383 20.2324C90.4375 20.2324 91.3027 20.418 91.834 20.7891C92.3691 21.1562 92.6367 21.7344 92.6367 22.5234V27H90.5449V26.3027Z" fill="#353535"/>
<path d="M14.6657 24.5669C13.316 24.5669 12.218 25.6649 12.218 27.0146C12.218 28.3642 13.316 29.4622 14.6657 29.4622C16.0156 29.4622 17.1134 28.3642 17.1134 27.0146C17.1134 25.6649 16.0154 24.5669 14.6657 24.5669ZM14.6657 28.2384C13.9908 28.2384 13.4419 27.6895 13.4419 27.0146C13.4419 26.3396 13.9908 25.7907 14.6657 25.7907C15.3406 25.7907 15.8895 26.3396 15.8895 27.0146C15.8895 27.6895 15.3406 28.2384 14.6657 28.2384Z" fill="#353535"/>
<path d="M6.30266 24.5669C4.95298 24.5669 3.85498 25.6649 3.85498 27.0146C3.85498 28.3642 4.95298 29.4622 6.30266 29.4622C7.65233 29.4622 8.75033 28.3642 8.75033 27.0146C8.75033 25.6649 7.65233 24.5669 6.30266 24.5669ZM6.30266 28.2384C5.62772 28.2384 5.07882 27.6895 5.07882 27.0146C5.07882 26.3396 5.62772 25.7907 6.30266 25.7907C6.9774 25.7907 7.52649 26.3396 7.52649 27.0146C7.52649 27.6895 6.97759 28.2384 6.30266 28.2384Z" fill="#353535"/>
<path d="M16.3141 17.5606C16.21 17.354 15.9985 17.2236 15.7672 17.2236H12.5444V18.4475H15.3898L17.0561 21.7616L18.1498 21.2117L16.3141 17.5606Z" fill="#353535"/>
<path d="M12.8299 26.4231H8.19971V27.6469H12.8299V26.4231Z" fill="#353535"/>
<path d="M4.46683 26.4231H2.34554C2.00754 26.4231 1.73364 26.697 1.73364 27.035C1.73364 27.373 2.00758 27.6469 2.34554 27.6469H4.46686C4.80486 27.6469 5.07876 27.373 5.07876 27.035C5.07876 26.697 4.80482 26.4231 4.46683 26.4231Z" fill="#353535"/>
<path d="M19.2895 22.6821L18.0859 21.1319C17.9703 20.9826 17.7918 20.8953 17.6027 20.8953H13.1561V16.6119C13.1561 16.2739 12.8821 16 12.5442 16H2.34554C2.00754 16 1.73364 16.2739 1.73364 16.6119C1.73364 16.9499 2.00758 17.2238 2.34554 17.2238H11.9322V21.5072C11.9322 21.8452 12.2062 22.1191 12.5441 22.1191H17.303L18.1942 23.2671V26.4229H16.5012C16.1632 26.4229 15.8893 26.6969 15.8893 27.0348C15.8893 27.3728 16.1632 27.6467 16.5012 27.6467H18.8061C19.1441 27.6467 19.418 27.3728 19.418 27.0348V23.0574C19.418 22.9216 19.3727 22.7894 19.2895 22.6821Z" fill="#353535"/>
<path d="M4.42625 23.3225H1.61141C1.27341 23.3225 0.999512 23.5965 0.999512 23.9344C0.999512 24.2724 1.27345 24.5463 1.61141 24.5463H4.42621C4.76421 24.5463 5.03811 24.2724 5.03811 23.9344C5.03815 23.5965 4.76421 23.3225 4.42625 23.3225Z" fill="#353535"/>
<path d="M5.83361 20.9155H0.6119C0.27394 20.9155 0 21.1895 0 21.5275C0 21.8655 0.27394 22.1394 0.6119 22.1394H5.83361C6.1716 22.1394 6.44551 21.8654 6.44551 21.5275C6.44551 21.1895 6.1716 20.9155 5.83361 20.9155Z" fill="#353535"/>
<path d="M6.83312 18.5088H1.61141C1.27341 18.5088 0.999512 18.7827 0.999512 19.1207C0.999512 19.4587 1.27345 19.7326 1.61141 19.7326H6.83312C7.17112 19.7326 7.44502 19.4586 7.44502 19.1207C7.44506 18.7827 7.17112 18.5088 6.83312 18.5088Z" fill="#353535"/>
</svg>
